MerriweatherSans-BoldItalic.ufo
<glyph name="quotesingle" format="1">
  <advance width="544"/>
  <unicode hex="0027"/>
  <outline>
    <contour>
      <point x="220" y="966" type="line"/>
      <point x="404" y="966" type="line"/>
      <point x="578" y="1687" type="line"/>
      <point x="301" y="1687" type="line"/>
    </contour>
  </outline>
</glyph>
<glyph name="parenleft" format="1">
  <advance width="854"/>
  <unicode hex="0028"/>
  <outline>
    <contour>
      <point x="167" y="523" type="curve" smooth="yes"/>
      <point x="167" y="9"/>
      <point x="422" y="-264"/>
      <point x="515" y="-335" type="curve"/>
      <point x="532" y="-335" type="line"/>
      <point x="674" y="-250" type="line"/>
      <point x="590" y="-152"/>
      <point x="430" y="100"/>
      <point x="430" y="515" type="curve" smooth="yes"/>
      <point x="430" y="613"/>
      <point x="439" y="720"/>
      <point x="454" y="812" type="curve" smooth="yes"/>
      <point x="533" y="1258"/>
      <point x="774" y="1545"/>
      <point x="919" y="1677" type="curve"/>
      <point x="786" y="1766" type="line"/>
      <point x="656" y="1696"/>
      <point x="272" y="1354"/>
      <point x="187" y="787" type="curve" smooth="yes"/>
      <point x="174" y="701"/>
      <point x="167" y="613"/>
    </contour>
  </outline>
</glyph>
<glyph name="period" format="1">
  <advance width="526"/>
  <unicode hex="002E"/>
  <outline>
    <contour>
      <point x="60" y="107" type="curve" smooth="yes"/>
      <point x="60" y="29"/>
      <point x="116" y="-26"/>
      <point x="197" y="-26" type="curve" smooth="yes"/>
      <point x="309" y="-26"/>
      <point x="382" y="48"/>
      <point x="382" y="164" type="curve" smooth="yes"/>
      <point x="382" y="233"/>
      <point x="344" y="294"/>
      <point x="242" y="294" type="curve" smooth="yes"/>
      <point x="130" y="294"/>
      <point x="60" y="204"/>
    </contour>
  </outline>
</glyph>
<glyph name="one" format="1">
  <advance width="983"/>
  <unicode hex="0031"/>
  <outline>
    <contour>
      <point x="313" y="0" type="line"/>
      <point x="592" y="0" type="line"/>
      <point x="757" y="1147" type="line"/>
      <point x="595" y="1162" type="line"/>
      <point x="489" y="1089"/>
      <point x="319" y="991"/>
      <point x="179" y="960" type="curve"/>
      <point x="210" y="798" type="line"/>
      <point x="297" y="813"/>
      <point x="357" y="822"/>
      <point x="434" y="847" type="curve"/>
    </contour>
  </outline>
</glyph>
<glyph name="two" format="1">
  <advance width="1269"/>
  <unicode hex="0032"/>
  <outline>
    <contour>
      <point x="96" y="0" type="line"/>
      <point x="1089" y="0" type="line"/>
      <point x="1125" y="213" type="line"/>
      <point x="464" y="183" type="line"/>
      <point x="771" y="343"/>
      <point x="1069" y="538"/>
      <point x="1069" y="823" type="curve" smooth="yes"/>
      <point x="1069" y="998"/>
      <point x="945" y="1159"/>
      <point x="667" y="1159" type="curve" smooth="yes"/>
      <point x="455" y="1159"/>
      <point x="272" y="1037"/>
      <point x="191" y="952" type="curve"/>
      <point x="287" y="801" type="line"/>
      <point x="363" y="864"/>
      <point x="493" y="938"/>
      <point x="603" y="938" type="curve" smooth="yes"/>
      <point x="709" y="938"/>
      <point x="764" y="886"/>
      <point x="764" y="786" type="curve" smooth="yes"/>
      <point x="764" y="598"/>
      <point x="428" y="326"/>
      <point x="57" y="136" type="curve"/>
    </contour>
  </outline>
</glyph>
<glyph name="three" format="1">
  <advance width="1136"/>
  <unicode hex="0033"/>
  <outline>
    <contour>
      <point x="70" y="-116" type="curve"/>
      <point x="45" y="-315" type="line"/>
      <point x="108" y="-323"/>
      <point x="161" y="-327"/>
      <point x="209" y="-327" type="curve" smooth="yes"/>
      <point x="619" y="-327"/>
      <point x="973" y="-142"/>
      <point x="973" y="167" type="curve" smooth="yes"/>
      <point x="973" y="320"/>
      <point x="846" y="465"/>
      <point x="618" y="469" type="curve"/>
      <point x="823" y="534"/>
      <point x="982" y="692"/>
      <point x="982" y="873" type="curve" smooth="yes"/>
      <point x="982" y="1069"/>
      <point x="810" y="1159"/>
      <point x="618" y="1159" type="curve" smooth="yes"/>
      <point x="405" y="1159"/>
      <point x="222" y="1065"/>
      <point x="156" y="1000" type="curve"/>
      <point x="236" y="823" type="line"/>
      <point x="320" y="888"/>
      <point x="423" y="936"/>
      <point x="525" y="936" type="curve" smooth="yes"/>
      <point x="633" y="936"/>
      <point x="690" y="891"/>
      <point x="690" y="809" type="curve" smooth="yes"/>
      <point x="690" y="647"/>
      <point x="478" y="566"/>
      <point x="296" y="536" type="curve"/>
      <point x="274" y="322" type="line"/>
      <point x="438" y="358" type="line"/>
      <point x="608" y="355"/>
      <point x="668" y="267"/>
      <point x="668" y="165" type="curve" smooth="yes"/>
      <point x="668" y="-22"/>
      <point x="479" y="-126"/>
      <point x="202" y="-126" type="curve" smooth="yes"/>
      <point x="165" y="-126"/>
      <point x="119" y="-122"/>
    </contour>
  </outline>
</glyph>
<glyph name="six" format="1">
  <advance width="1278"/>
  <unicode hex="0036"/>
  <outline>
    <contour>
      <point x="128" y="503" type="curve" smooth="yes"/>
      <point x="128" y="218"/>
      <point x="269" y="-16"/>
      <point x="580" y="-16" type="curve" smooth="yes"/>
      <point x="976" y="-16"/>
      <point x="1153" y="314"/>
      <point x="1153" y="606" type="curve" smooth="yes"/>
      <point x="1153" y="816"/>
      <point x="1049" y="1013"/>
      <point x="798" y="1013" type="curve" smooth="yes"/>
      <point x="676" y="1013"/>
      <point x="556" y="973"/>
      <point x="487" y="920" type="curve"/>
      <point x="546" y="1083"/>
      <point x="766" y="1329"/>
      <point x="1071" y="1435" type="curve"/>
      <point x="1009" y="1598" type="line"/>
      <point x="496" y="1465"/>
      <point x="128" y="1007"/>
    </contour>
    <contour>
      <point x="391" y="501" type="curve" smooth="yes"/>
      <point x="391" y="564"/>
      <point x="402" y="627"/>
      <point x="422" y="699" type="curve"/>
      <point x="457" y="740"/>
      <point x="551" y="814"/>
      <point x="698" y="814" type="curve" smooth="yes"/>
      <point x="800" y="814"/>
      <point x="886" y="745"/>
      <point x="886" y="575" type="curve" smooth="yes"/>
      <point x="886" y="418"/>
      <point x="816" y="172"/>
      <point x="617" y="172" type="curve" smooth="yes"/>
      <point x="470" y="172"/>
      <point x="391" y="310"/>
    </contour>
  </outline>
</glyph>
<glyph name="eight" format="1">
  <advance width="1330"/>
  <unicode hex="0038"/>
  <outline>
    <contour>
      <point x="125" y="351" type="curve" smooth="yes"/>
      <point x="125" y="110"/>
      <point x="347" y="-18"/>
      <point x="598" y="-18" type="curve" smooth="yes"/>
      <point x="908" y="-18"/>
      <point x="1149" y="139"/>
      <point x="1149" y="405" type="curve" smooth="yes"/>
      <point x="1149" y="579"/>
      <point x="1023" y="705"/>
      <point x="883" y="808" type="curve"/>
      <point x="1054" y="867"/>
      <point x="1219" y="1009"/>
      <point x="1219" y="1225" type="curve" smooth="yes"/>
      <point x="1219" y="1427"/>
      <point x="1037" y="1559"/>
      <point x="796" y="1559" type="curve" smooth="yes"/>
      <point x="511" y="1559"/>
      <point x="309" y="1404"/>
      <point x="309" y="1136" type="curve" smooth="yes"/>
      <point x="309" y="988"/>
      <point x="391" y="885"/>
      <point x="494" y="796" type="curve"/>
      <point x="302" y="725"/>
      <point x="124" y="576"/>
    </contour>
    <contour>
      <point x="766" y="897" type="curve"/>
      <point x="656" y="978"/>
      <point x="574" y="1059"/>
      <point x="574" y="1169" type="curve" smooth="yes"/>
      <point x="574" y="1294"/>
      <point x="653" y="1390"/>
      <point x="777" y="1390" type="curve" smooth="yes"/>
      <point x="875" y="1390"/>
      <point x="965" y="1325"/>
      <point x="965" y="1203" type="curve" smooth="yes"/>
      <point x="965" y="1060"/>
      <point x="877" y="956"/>
    </contour>
    <contour>
      <point x="398" y="388" type="curve" smooth="yes"/>
      <point x="400" y="537"/>
      <point x="495" y="644"/>
      <point x="608" y="707" type="curve"/>
      <point x="756" y="601"/>
      <point x="865" y="501"/>
      <point x="865" y="372" type="curve" smooth="yes"/>
      <point x="865" y="246"/>
      <point x="772" y="158"/>
      <point x="635" y="158" type="curve" smooth="yes"/>
      <point x="504" y="158"/>
      <point x="398" y="254"/>
    </contour>
  </outline>
</glyph>
<glyph name="A" format="1">
  <advance width="1305"/>
  <unicode hex="0041"/>
  <outline>
    <contour>
      <point x="-100" y="-1" type="line"/>
      <point x="201" y="0" type="line"/>
      <point x="730" y="1216" type="line"/>
      <point x="777" y="1337" type="line"/>
      <point x="787" y="1219" type="line"/>
      <point x="958" y="-1" type="line"/>
      <point x="1235" y="0" type="line"/>
      <point x="978" y="1530" type="line"/>
      <point x="644" y="1530" type="line"/>
    </contour>
    <contour>
      <point x="286" y="341" type="line"/>
      <point x="1002" y="341" type="line"/>
      <point x="1005" y="537" type="line"/>
      <point x="288" y="537" type="line"/>
    </contour>
    <contour>
      <point x="611" y="-168" type="move" name="btm"/>
    </contour>
    <contour>
      <point x="804" y="1700" type="move" name="top"/>
    </contour>
  </outline>
</glyph>
<glyph name="T" format="1">
  <advance width="1138"/>
  <unicode hex="0054"/>
  <outline>
    <contour>
      <point x="348" y="0" type="line"/>
      <point x="627" y="0" type="line"/>
      <point x="805" y="1325" type="line"/>
      <point x="1191" y="1314" type="line"/>
      <point x="1221" y="1530" type="line"/>
      <point x="166" y="1530" type="line"/>
      <point x="133" y="1314" type="line"/>
      <point x="526" y="1325" type="line"/>
    </contour>
    <contour>
      <point x="456" y="-170" type="move" name="btm"/>
    </contour>
    <contour>
      <point x="706" y="1700" type="move" name="top"/>
    </contour>
  </outline>
</glyph>
<glyph name="U" format="1">
  <advance width="1402"/>
  <unicode hex="0055"/>
  <outline>
    <contour>
      <point x="131" y="430" type="curve" smooth="yes"/>
      <point x="134" y="154"/>
      <point x="288" y="-16"/>
      <point x="612" y="-16" type="curve" smooth="yes"/>
      <point x="995" y="-16"/>
      <point x="1197" y="155"/>
      <point x="1259" y="612" type="curve" smooth="yes"/>
      <point x="1381" y="1530" type="line"/>
      <point x="1108" y="1530" type="line"/>
      <point x="989" y="639" type="line" smooth="yes"/>
      <point x="944" y="313"/>
      <point x="841" y="200"/>
      <point x="653" y="200" type="curve" smooth="yes"/>
      <point x="493" y="200"/>
      <point x="416" y="271"/>
      <point x="413" y="443" type="curve" smooth="yes"/>
      <point x="413" y="500"/>
      <point x="416" y="562"/>
      <point x="425" y="635" type="curve" smooth="yes"/>
      <point x="545" y="1530" type="line"/>
      <point x="269" y="1530" type="line"/>
      <point x="144" y="595" type="line" smooth="yes"/>
      <point x="136" y="536"/>
      <point x="130" y="482"/>
    </contour>
    <contour>
      <point x="640" y="-170" type="move" name="btm"/>
    </contour>
    <contour>
      <point x="827" y="1700" type="move" name="top"/>
    </contour>
  </outline>
</glyph>
<glyph name="V" format="1">
  <advance width="1201"/>
  <unicode hex="0056"/>
  <outline>
    <contour>
      <point x="354" y="0" type="line"/>
      <point x="665" y="0" type="line"/>
      <point x="1343" y="1530" type="line"/>
      <point x="1051" y="1530" type="line"/>
      <point x="635" y="490" type="line"/>
      <point x="553" y="248" type="line"/>
      <point x="532" y="490" type="line"/>
      <point x="392" y="1530" type="line"/>
      <point x="116" y="1530" type="line"/>
    </contour>
    <contour>
      <point x="618" y="-170" type="move" name="btm"/>
    </contour>
    <contour>
      <point x="858" y="1700" type="move" name="top"/>
    </contour>
  </outline>
</glyph>
<glyph name="W" format="1">
  <advance width="1788"/>
  <unicode hex="0057"/>
  <outline>
    <contour>
      <point x="320" y="-5" type="line"/>
      <point x="610" y="-5" type="line"/>
      <point x="875" y="698" type="line"/>
      <point x="973" y="983" type="line"/>
      <point x="925" y="956" type="line"/>
      <point x="949" y="698" type="line"/>
      <point x="1025" y="-5" type="line"/>
      <point x="1333" y="-5" type="line"/>
      <point x="1945" y="1530" type="line"/>
      <point x="1663" y="1530" type="line"/>
      <point x="1287" y="493" type="line"/>
      <point x="1224" y="274" type="line"/>
      <point x="1205" y="493" type="line"/>
      <point x="1117" y="1530" type="line"/>
      <point x="849" y="1530" type="line"/>
      <point x="891" y="1149" type="line"/>
      <point x="910" y="1328" type="line"/>
      <point x="579" y="493" type="line"/>
      <point x="515" y="274" type="line"/>
      <point x="489" y="493" type="line"/>
      <point x="389" y="1530" type="line"/>
      <point x="112" y="1530" type="line"/>
    </contour>
    <contour>
      <point x="874" y="-170" type="move" name="btm"/>
    </contour>
    <contour>
      <point x="1028" y="1700" type="move" name="top"/>
    </contour>
  </outline>
</glyph>
<glyph name="bracketleft" format="1">
  <advance width="854"/>
  <unicode hex="005B"/>
  <outline>
    <contour>
      <point x="161" y="48" type="curve"/>
      <point x="157" y="8"/>
      <point x="155" y="-28"/>
      <point x="155" y="-62" type="curve" smooth="yes"/>
      <point x="155" y="-172"/>
      <point x="214" y="-225"/>
      <point x="340" y="-225" type="curve" smooth="yes"/>
      <point x="474" y="-225"/>
      <point x="557" y="-199"/>
      <point x="648" y="-173" type="curve"/>
      <point x="649" y="-159"/>
      <point x="662" y="-58"/>
      <point x="664" y="-44" type="curve"/>
      <point x="620" y="-44"/>
      <point x="443" y="-43"/>
      <point x="399" y="-43" type="curve"/>
      <point x="617" y="1591" type="line"/>
      <point x="882" y="1591" type="line"/>
      <point x="902" y="1722" type="line"/>
      <point x="902" y="1722"/>
      <point x="720" y="1769"/>
      <point x="607" y="1769" type="curve" smooth="yes"/>
      <point x="449" y="1769"/>
      <point x="390" y="1690"/>
      <point x="364" y="1498" type="curve" smooth="yes"/>
      <point x="334" y="1271"/>
      <point x="172" y="232"/>
    </contour>
  </outline>
</glyph>
<glyph name="backslash" format="1">
  <advance width="854"/>
  <unicode hex="005C"/>
  <outline>
    <contour>
      <point x="592" y="-362" type="line"/>
      <point x="16" y="1597" type="line"/>
      <point x="237" y="1597" type="line"/>
      <point x="814" y="-362" type="line"/>
    </contour>
  </outline>
</glyph>
<glyph name="d" format="1">
  <advance width="1218"/>
  <unicode hex="0064"/>
  <outline>
    <contour>
      <point x="736" y="0" type="line"/>
      <point x="983" y="0" type="line"/>
      <point x="1199" y="1636" type="line"/>
      <point x="929" y="1636" type="line"/>
      <point x="754" y="356" type="line"/>
      <point x="754" y="277" type="line"/>
    </contour>
    <contour>
      <point x="398" y="-16" type="curve" smooth="yes"/>
      <point x="630" y="-16"/>
      <point x="775" y="238"/>
      <point x="801" y="351" type="curve"/>
      <point x="793" y="544" type="line"/>
      <point x="752" y="427"/>
      <point x="619" y="182"/>
      <point x="478" y="182" type="curve" smooth="yes"/>
      <point x="404" y="182"/>
      <point x="362" y="261"/>
      <point x="362" y="437" type="curve" smooth="yes"/>
      <point x="362" y="676"/>
      <point x="476" y="980"/>
      <point x="722" y="980" type="curve" smooth="yes"/>
      <point x="831" y="980"/>
      <point x="905" y="935"/>
      <point x="938" y="906" type="curve"/>
      <point x="1014" y="1108" type="line"/>
      <point x="954" y="1130"/>
      <point x="839" y="1156"/>
      <point x="750" y="1156" type="curve" smooth="yes"/>
      <point x="291" y="1156"/>
      <point x="75" y="755"/>
      <point x="75" y="414" type="curve" smooth="yes"/>
      <point x="75" y="169"/>
      <point x="166" y="-16"/>
    </contour>
    <contour>
      <point x="1150" y="1662" type="move" name="caron"/>
    </contour>
    <contour>
      <point x="478" y="1257" type="move" name="top"/>
    </contour>
  </outline>
</glyph>
<glyph name="o" format="1">
  <advance width="1158"/>
  <unicode hex="006F"/>
  <outline>
    <contour>
      <point x="356" y="438" type="curve" smooth="yes"/>
      <point x="353" y="675"/>
      <point x="444" y="976"/>
      <point x="639" y="976" type="curve" smooth="yes"/>
      <point x="747" y="976"/>
      <point x="796" y="886"/>
      <point x="797" y="700" type="curve" smooth="yes"/>
      <point x="800" y="458"/>
      <point x="716" y="165"/>
      <point x="519" y="165" type="curve" smooth="yes"/>
      <point x="412" y="165"/>
      <point x="357" y="257"/>
    </contour>
    <contour>
      <point x="77" y="457" type="curve" smooth="yes"/>
      <point x="80" y="181"/>
      <point x="205" y="-16"/>
      <point x="480" y="-16" type="curve" smooth="yes"/>
      <point x="859" y="-16"/>
      <point x="1082" y="321"/>
      <point x="1079" y="684" type="curve" smooth="yes"/>
      <point x="1076" y="960"/>
      <point x="957" y="1156"/>
      <point x="681" y="1156" type="curve" smooth="yes"/>
      <point x="302" y="1156"/>
      <point x="74" y="820"/>
    </contour>
    <contour>
      <point x="689" y="1257" type="move" name="top"/>
    </contour>
    <contour>
      <point x="618" y="-138" type="move" name="bottom"/>
    </contour>
  </outline>
</glyph>
<glyph name="p" format="1">
  <advance width="1227"/>
  <unicode hex="0070"/>
  <outline>
    <contour>
      <point x="12" y="-503" type="line"/>
      <point x="285" y="-503" type="line"/>
      <point x="461" y="778" type="line"/>
      <point x="474" y="914" type="line"/>
      <point x="484" y="1140" type="line"/>
      <point x="233" y="1140" type="line"/>
    </contour>
    <contour>
      <point x="466" y="-16" type="curve" smooth="yes"/>
      <point x="926" y="-16"/>
      <point x="1142" y="387"/>
      <point x="1142" y="728" type="curve" smooth="yes"/>
      <point x="1142" y="973"/>
      <point x="1051" y="1156"/>
      <point x="819" y="1156" type="curve" smooth="yes"/>
      <point x="586" y="1156"/>
      <point x="442" y="908"/>
      <point x="416" y="796" type="curve"/>
      <point x="424" y="604" type="line"/>
      <point x="464" y="719"/>
      <point x="597" y="958"/>
      <point x="739" y="958" type="curve" smooth="yes"/>
      <point x="813" y="958"/>
      <point x="854" y="881"/>
      <point x="854" y="705" type="curve" smooth="yes"/>
      <point x="854" y="466"/>
      <point x="740" y="161"/>
      <point x="494" y="161" type="curve" smooth="yes"/>
      <point x="404" y="161"/>
      <point x="324" y="179"/>
      <point x="278" y="234" type="curve"/>
      <point x="202" y="32" type="line"/>
      <point x="262" y="10"/>
      <point x="377" y="-16"/>
    </contour>
    <contour>
      <point x="793" y="1257" type="move" name="top"/>
    </contour>
  </outline>
</glyph>
<glyph name="t" format="1">
  <advance width="790"/>
  <unicode hex="0074"/>
  <outline>
    <contour>
      <point x="139" y="179" type="curve" smooth="yes"/>
      <point x="139" y="42"/>
      <point x="226" y="-18"/>
      <point x="348" y="-18" type="curve" smooth="yes"/>
      <point x="503" y="-18"/>
      <point x="656" y="71"/>
      <point x="720" y="133" type="curve"/>
      <point x="681" y="272" type="line"/>
      <point x="638" y="235"/>
      <point x="535" y="182"/>
      <point x="487" y="182" type="curve" smooth="yes"/>
      <point x="432" y="182"/>
      <point x="424" y="226"/>
      <point x="424" y="268" type="curve" smooth="yes"/>
      <point x="424" y="304"/>
      <point x="430" y="338"/>
      <point x="439" y="406" type="curve" smooth="yes"/>
      <point x="512" y="954" type="line"/>
      <point x="756" y="954" type="line"/>
      <point x="779" y="1140" type="line"/>
      <point x="537" y="1140" type="line"/>
      <point x="574" y="1418" type="line"/>
      <point x="358" y="1418" type="line"/>
      <point x="278" y="1140" type="line"/>
      <point x="173" y="1140" type="line"/>
      <point x="134" y="954" type="line"/>
      <point x="234" y="954" type="line"/>
      <point x="156" y="347" type="line" smooth="yes"/>
      <point x="143" y="255"/>
      <point x="139" y="192"/>
    </contour>
    <contour>
      <point x="312" y="-168" type="move" name="btm"/>
    </contour>
    <contour>
      <point x="485" y="1379" type="move" name="top"/>
    </contour>
    <contour>
      <point x="429" y="470" type="move" name="tbarbar"/>
    </contour>
  </outline>
</glyph>
<glyph name="x" format="1">
  <advance width="1003"/>
  <unicode hex="0078"/>
  <outline>
    <contour>
      <point x="209" y="2" type="line"/>
      <point x="507" y="459" type="line"/>
      <point x="610" y="529" type="line"/>
      <point x="1057" y="1140" type="line"/>
      <point x="773" y="1140" type="line"/>
      <point x="473" y="674" type="line"/>
      <point x="377" y="620" type="line"/>
      <point x="-80" y="2" type="line"/>
    </contour>
    <contour>
      <point x="404" y="512" type="line"/>
      <point x="615" y="2" type="line"/>
      <point x="934" y="2" type="line"/>
      <point x="587" y="651" type="line"/>
      <point x="403" y="1140" type="line"/>
      <point x="82" y="1140" type="line"/>
    </contour>
    <contour>
      <point x="511" y="1257" type="move" name="top"/>
    </contour>
  </outline>
</glyph>
<glyph name="braceleft" format="1">
  <advance width="1024"/>
  <unicode hex="007B"/>
  <outline>
    <contour>
      <point x="234" y="-70" type="curve"/>
      <point x="233" y="-180"/>
      <point x="280" y="-231"/>
      <point x="416" y="-231" type="curve" smooth="yes"/>
      <point x="540" y="-231"/>
      <point x="644" y="-200"/>
      <point x="736" y="-169" type="curve"/>
      <point x="736" y="-169"/>
      <point x="750" y="-58"/>
      <point x="753" y="-43" type="curve"/>
      <point x="478" y="-43" type="line"/>
      <point x="571" y="569" type="line" smooth="yes"/>
      <point x="579" y="620"/>
      <point x="560" y="647"/>
      <point x="530" y="678" type="curve" smooth="yes"/>
      <point x="501" y="708"/>
      <point x="423" y="743"/>
      <point x="364" y="774" type="curve"/>
      <point x="364" y="774"/>
      <point x="510" y="829"/>
      <point x="539" y="846" type="curve" smooth="yes"/>
      <point x="592" y="879"/>
      <point x="624" y="911"/>
      <point x="632" y="965" type="curve" smooth="yes"/>
      <point x="727" y="1590" type="line"/>
      <point x="1003" y="1590" type="line"/>
      <point x="1004" y="1600"/>
      <point x="1025" y="1722"/>
      <point x="1025" y="1722" type="curve"/>
      <point x="1025" y="1722"/>
      <point x="830" y="1774"/>
      <point x="730" y="1774" type="curve" smooth="yes"/>
      <point x="563" y="1774"/>
      <point x="502" y="1715"/>
      <point x="470" y="1517" type="curve" smooth="yes"/>
      <point x="388" y="989" type="line"/>
      <point x="384" y="966"/>
      <point x="358" y="940"/>
      <point x="323" y="921" type="curve" smooth="yes"/>
      <point x="271" y="894"/>
      <point x="196" y="877"/>
      <point x="131" y="861" type="curve"/>
      <point x="106" y="698" type="line"/>
      <point x="165" y="684"/>
      <point x="228" y="664"/>
      <point x="271" y="635" type="curve" smooth="yes"/>
      <point x="303" y="614"/>
      <point x="323" y="585"/>
      <point x="323" y="563" type="curve"/>
      <point x="323" y="563"/>
      <point x="235" y="-41"/>
    </contour>
  </outline>
</glyph>
<glyph name="copyright" format="1">
  <advance width="2110"/>
  <unicode hex="00A9"/>
  <outline>
    <contour>
      <point x="327" y="963" type="curve" smooth="yes"/>
      <point x="327" y="1376"/>
      <point x="636" y="1713"/>
      <point x="1055" y="1713" type="curve" smooth="yes"/>
      <point x="1474" y="1713"/>
      <point x="1783" y="1376"/>
      <point x="1783" y="963" type="curve" smooth="yes"/>
      <point x="1783" y="549"/>
      <point x="1474" y="212"/>
      <point x="1055" y="212" type="curve" smooth="yes"/>
      <point x="636" y="212"/>
      <point x="327" y="549"/>
    </contour>
    <contour>
      <point x="610" y="955" type="curve" smooth="yes"/>
      <point x="611" y="702"/>
      <point x="780" y="475"/>
      <point x="1056" y="475" type="curve" smooth="yes"/>
      <point x="1189" y="475"/>
      <point x="1311" y="520"/>
      <point x="1374" y="574" type="curve"/>
      <point x="1330" y="722" type="line"/>
      <point x="1285" y="694"/>
      <point x="1200" y="660"/>
      <point x="1094" y="660" type="curve" smooth="yes"/>
      <point x="941" y="660"/>
      <point x="832" y="763"/>
      <point x="833" y="982" type="curve" smooth="yes"/>
      <point x="833" y="1149"/>
      <point x="934" y="1272"/>
      <point x="1098" y="1272" type="curve" smooth="yes"/>
      <point x="1189" y="1272"/>
      <point x="1269" y="1246"/>
      <point x="1317" y="1213" type="curve"/>
      <point x="1352" y="1397" type="line"/>
      <point x="1314" y="1419"/>
      <point x="1226" y="1453"/>
      <point x="1106" y="1453" type="curve" smooth="yes"/>
      <point x="782" y="1453"/>
      <point x="609" y="1237"/>
    </contour>
    <contour>
      <point x="185" y="963" type="curve" smooth="yes"/>
      <point x="185" y="476"/>
      <point x="569" y="83"/>
      <point x="1055" y="83" type="curve" smooth="yes"/>
      <point x="1541" y="83"/>
      <point x="1926" y="476"/>
      <point x="1926" y="963" type="curve" smooth="yes"/>
      <point x="1926" y="1449"/>
      <point x="1541" y="1839"/>
      <point x="1055" y="1839" type="curve" smooth="yes"/>
      <point x="569" y="1839"/>
      <point x="185" y="1449"/>
    </contour>
  </outline>
</glyph>
<glyph name="logicalnot" format="1">
  <advance width="1370"/>
  <unicode hex="00AC"/>
  <outline>
    <contour>
      <point x="207" y="664" type="line"/>
      <point x="950" y="664" type="line"/>
      <point x="909" y="322" type="line"/>
      <point x="1126" y="322" type="line"/>
      <point x="1188" y="853" type="line"/>
      <point x="228" y="853" type="line"/>
    </contour>
  </outline>
</glyph>
<glyph name="twosuperior" format="1">
  <advance width="1163"/>
  <unicode hex="00B2"/>
  <outline>
    <contour>
      <point x="220" y="592" type="line"/>
      <point x="1033" y="592" type="line"/>
      <point x="1045" y="794" type="line"/>
      <point x="541" y="765" type="line"/>
      <point x="835" y="935"/>
      <point x="1046" y="1144"/>
      <point x="1046" y="1373" type="curve" smooth="yes"/>
      <point x="1046" y="1522"/>
      <point x="912" y="1649"/>
      <point x="670" y="1647" type="curve" smooth="yes"/>
      <point x="470" y="1646"/>
      <point x="297" y="1534"/>
      <point x="239" y="1454" type="curve"/>
      <point x="330" y="1335" type="line"/>
      <point x="400" y="1404"/>
      <point x="502" y="1453"/>
      <point x="625" y="1453" type="curve" smooth="yes"/>
      <point x="713" y="1453"/>
      <point x="778" y="1416"/>
      <point x="778" y="1317" type="curve" smooth="yes"/>
      <point x="778" y="1121"/>
      <point x="327" y="814"/>
      <point x="161" y="727" type="curve"/>
    </contour>
  </outline>
</glyph>
<glyph name="micro" format="1">
  <advance width="1364"/>
  <unicode hex="00B5"/>
  <outline>
    <contour>
      <point x="410" y="58" type="line"/>
      <point x="439" y="3"/>
      <point x="534" y="-18"/>
      <point x="577" y="-18" type="curve" smooth="yes"/>
      <point x="712" y="-18"/>
      <point x="781" y="40"/>
      <point x="847" y="122" type="curve"/>
      <point x="862" y="18"/>
      <point x="931" y="-18"/>
      <point x="1022" y="-18" type="curve" smooth="yes"/>
      <point x="1178" y="-18"/>
      <point x="1268" y="85"/>
      <point x="1306" y="127" type="curve"/>
      <point x="1236" y="247" type="line"/>
      <point x="1201" y="206"/>
      <point x="1160" y="175"/>
      <point x="1122" y="175" type="curve" smooth="yes"/>
      <point x="1101" y="175"/>
      <point x="1082" y="206"/>
      <point x="1089" y="258" type="curve" smooth="yes"/>
      <point x="1201" y="1140" type="line"/>
      <point x="928" y="1140" type="line"/>
      <point x="827" y="372" type="line" smooth="yes"/>
      <point x="793" y="283"/>
      <point x="681" y="199"/>
      <point x="604" y="199" type="curve" smooth="yes"/>
      <point x="529" y="199"/>
      <point x="459" y="239"/>
      <point x="476" y="391" type="curve" smooth="yes"/>
      <point x="476" y="390"/>
      <point x="543" y="901"/>
      <point x="549" y="953" type="curve" smooth="yes"/>
      <point x="567" y="1095"/>
      <point x="481" y="1155"/>
      <point x="379" y="1155" type="curve" smooth="yes"/>
      <point x="226" y="1155"/>
      <point x="105" y="1050"/>
      <point x="87" y="1029" type="curve"/>
      <point x="143" y="889" type="line"/>
      <point x="168" y="914"/>
      <point x="197" y="939"/>
      <point x="234" y="939" type="curve" smooth="yes"/>
      <point x="262" y="939"/>
      <point x="267" y="883"/>
      <point x="259" y="826" type="curve" smooth="yes"/>
      <point x="86" y="-372" type="line"/>
      <point x="346" y="-372" type="line"/>
    </contour>
  </outline>
</glyph>
<glyph name="ae" format="1">
  <advance width="1702"/>
  <unicode hex="00E6"/>
  <outline>
    <contour>
      <point x="754" y="589" type="line"/>
      <point x="713" y="452"/>
      <point x="589" y="191"/>
      <point x="468" y="191" type="curve" smooth="yes"/>
      <point x="394" y="191"/>
      <point x="362" y="261"/>
      <point x="362" y="437" type="curve" smooth="yes"/>
      <point x="362" y="676"/>
      <point x="479" y="980"/>
      <point x="742" y="980" type="curve" smooth="yes"/>
      <point x="822" y="980"/>
      <point x="921" y="950"/>
      <point x="978" y="883" type="curve"/>
      <point x="1094" y="1050" type="line"/>
      <point x="990" y="1132"/>
      <point x="883" y="1156"/>
      <point x="770" y="1156" type="curve" smooth="yes"/>
      <point x="293" y="1156"/>
      <point x="75" y="755"/>
      <point x="75" y="414" type="curve" smooth="yes"/>
      <point x="75" y="169"/>
      <point x="151" y="-16"/>
      <point x="383" y="-16" type="curve" smooth="yes"/>
      <point x="611" y="-16"/>
      <point x="738" y="276"/>
      <point x="781" y="413" type="curve"/>
    </contour>
    <contour>
      <point x="708" y="438" type="curve" smooth="yes"/>
      <point x="705" y="206"/>
      <point x="825" y="-16"/>
      <point x="1121" y="-16" type="curve" smooth="yes"/>
      <point x="1348" y="-16"/>
      <point x="1519" y="120"/>
      <point x="1577" y="202" type="curve"/>
      <point x="1504" y="343" type="line"/>
      <point x="1422" y="257"/>
      <point x="1290" y="182"/>
      <point x="1176" y="182" type="curve" smooth="yes"/>
      <point x="1025" y="182"/>
      <point x="996" y="295"/>
      <point x="999" y="404" type="curve"/>
      <point x="1280" y="454"/>
      <point x="1639" y="584"/>
      <point x="1639" y="900" type="curve" smooth="yes"/>
      <point x="1639" y="1051"/>
      <point x="1542" y="1156"/>
      <point x="1328" y="1156" type="curve" smooth="yes"/>
      <point x="973" y="1156"/>
      <point x="713" y="861"/>
    </contour>
    <contour>
      <point x="999" y="563" type="curve"/>
      <point x="1010" y="721"/>
      <point x="1102" y="984"/>
      <point x="1267" y="984" type="curve" smooth="yes"/>
      <point x="1331" y="984"/>
      <point x="1369" y="955"/>
      <point x="1369" y="874" type="curve" smooth="yes"/>
      <point x="1369" y="695"/>
      <point x="1139" y="570"/>
    </contour>
    <contour>
      <point x="963" y="1257" type="move" name="top"/>
    </contour>
  </outline>
</glyph>
<glyph name="aogonek" format="1">
  <advance width="1221"/>
  <unicode hex="0105"/>
  <outline>
    <contour>
      <point x="509" y="-299" type="curve" smooth="yes"/>
      <point x="509" y="-383"/>
      <point x="579" y="-473"/>
      <point x="712" y="-473" type="curve" smooth="yes"/>
      <point x="843" y="-473"/>
      <point x="938" y="-424"/>
      <point x="999" y="-364" type="curve"/>
      <point x="953" y="-227" type="line"/>
      <point x="897" y="-269"/>
      <point x="857" y="-282"/>
      <point x="812" y="-282" type="curve" smooth="yes"/>
      <point x="781" y="-282"/>
      <point x="747" y="-269"/>
      <point x="747" y="-213" type="curve" smooth="yes"/>
      <point x="747" y="-144"/>
      <point x="868" y="-55"/>
      <point x="973" y="0" type="curve"/>
      <point x="883" y="40" type="line"/>
      <point x="779" y="4" type="line"/>
      <point x="696" y="-35"/>
      <point x="509" y="-153"/>
    </contour>
    <component base="a" xOffset="8"/>
  </outline>
</glyph>
<glyph name="dcroat" format="1">
  <advance width="1218"/>
  <unicode hex="0111"/>
  <outline>
    <contour>
      <point x="635" y="1262" type="line"/>
      <point x="1297" y="1262" type="line"/>
      <point x="1313" y="1392" type="line"/>
      <point x="651" y="1392" type="line"/>
    </contour>
    <component base="d"/>
  </outline>
</glyph>
<glyph name="gcommaaccent" format="1">
  <advance width="1213"/>
  <unicode hex="0123"/>
  <outline>
    <contour>
      <point x="731" y="1243" type="curve"/>
      <point x="871" y="1355" type="line"/>
      <point x="879" y="1429" type="line"/>
      <point x="839" y="1435"/>
      <point x="809" y="1486"/>
      <point x="809" y="1534" type="curve" smooth="yes"/>
      <point x="809" y="1608"/>
      <point x="842" y="1648"/>
      <point x="878" y="1673" type="curve"/>
      <point x="881" y="1699" type="line"/>
      <point x="790" y="1759" type="line"/>
      <point x="699" y="1741"/>
      <point x="585" y="1626"/>
      <point x="585" y="1459" type="curve" smooth="yes"/>
      <point x="585" y="1358"/>
      <point x="644" y="1262"/>
    </contour>
    <component base="g"/>
  </outline>
</glyph>
<glyph name="lacute" format="1">
  <advance width="625"/>
  <unicode hex="013A"/>
  <outline>
    <contour>
      <point x="104" y="0" type="line"/>
      <point x="380" y="0" type="line"/>
      <point x="589" y="1526" type="line"/>
      <point x="312" y="1526" type="line"/>
    </contour>
    <component base="acute.cap" xOffset="309"/>
  </outline>
</glyph>
<glyph name="florin" format="1">
  <advance width="1059"/>
  <unicode hex="0192"/>
  <outline>
    <contour>
      <point x="198" y="-356" type="line"/>
      <point x="471" y="-356" type="line"/>
      <point x="471" y="-354"/>
      <point x="581" y="480"/>
      <point x="648" y="969" type="curve"/>
      <point x="882" y="969" type="line"/>
      <point x="902" y="1155" type="line"/>
      <point x="671" y="1155" type="line"/>
      <point x="693" y="1294" type="line"/>
      <point x="719" y="1453"/>
      <point x="778" y="1488"/>
      <point x="869" y="1488" type="curve" smooth="yes"/>
      <point x="944" y="1489"/>
      <point x="985" y="1459"/>
      <point x="1000" y="1449" type="curve"/>
      <point x="1037" y="1653" type="line"/>
      <point x="1003" y="1667"/>
      <point x="942" y="1674"/>
      <point x="870" y="1674" type="curve" smooth="yes"/>
      <point x="652" y="1674"/>
      <point x="453" y="1510"/>
      <point x="415" y="1238" type="curve"/>
      <point x="402" y="1155" type="line"/>
      <point x="208" y="1113" type="line"/>
      <point x="191" y="969" type="line"/>
      <point x="376" y="969" type="line"/>
    </contour>
  </outline>
</glyph>
<glyph name="caron" format="1">
  <advance width="799"/>
  <unicode hex="02C7"/>
  <outline>
    <contour>
      <point x="270" y="1242" type="line"/>
      <point x="448" y="1242" type="line"/>
      <point x="791" y="1583" type="line"/>
      <point x="676" y="1660" type="line"/>
      <point x="382" y="1443" type="line"/>
      <point x="149" y="1660" type="line"/>
      <point x="43" y="1582" type="line"/>
    </contour>
    <contour>
      <point x="386" y="1255" type="move" name="_top"/>
    </contour>
  </outline>
</glyph>
<glyph name="dotaccent" format="1">
  <advance width="390"/>
  <unicode hex="02D9"/>
  <outline>
    <contour>
      <point x="173" y="1351" type="curve" smooth="yes"/>
      <point x="284" y="1351"/>
      <point x="355" y="1431"/>
      <point x="358" y="1526" type="curve" smooth="yes"/>
      <point x="360" y="1602"/>
      <point x="300" y="1666"/>
      <point x="208" y="1666" type="curve" smooth="yes"/>
      <point x="110" y="1666"/>
      <point x="33" y="1587"/>
      <point x="31" y="1494" type="curve" smooth="yes"/>
      <point x="28" y="1415"/>
      <point x="95" y="1351"/>
    </contour>
    <contour>
      <point x="163" y="1255" type="move" name="_top"/>
    </contour>
  </outline>
</glyph>
<glyph name="tilde" format="1">
  <advance width="820"/>
  <unicode hex="02DC"/>
  <outline>
    <contour>
      <point x="79" y="1381" type="line"/>
      <point x="119" y="1423"/>
      <point x="163" y="1472"/>
      <point x="230" y="1471" type="curve" smooth="yes"/>
      <point x="352" y="1469"/>
      <point x="363" y="1324"/>
      <point x="542" y="1324" type="curve" smooth="yes"/>
      <point x="658" y="1324"/>
      <point x="790" y="1422"/>
      <point x="826" y="1520" type="curve"/>
      <point x="724" y="1637" type="line"/>
      <point x="684" y="1587"/>
      <point x="646" y="1527"/>
      <point x="567" y="1527" type="curve" smooth="yes"/>
      <point x="466" y="1527"/>
      <point x="437" y="1674"/>
      <point x="274" y="1674" type="curve" smooth="yes"/>
      <point x="167" y="1674"/>
      <point x="27" y="1580"/>
      <point x="-18" y="1491" type="curve"/>
    </contour>
    <contour>
      <point x="392" y="1255" type="move" name="_top"/>
    </contour>
  </outline>
</glyph>
<glyph name="commaaccentcomb" format="1">
  <advance width="369"/>
  <unicode hex="0326"/>
  <outline>
    <contour>
      <point x="90" y="-335" type="curve" smooth="yes"/>
      <point x="90" y="-409"/>
      <point x="57" y="-449"/>
      <point x="22" y="-474" type="curve"/>
      <point x="19" y="-500" type="line"/>
      <point x="109" y="-560" type="line"/>
      <point x="200" y="-542"/>
      <point x="315" y="-427"/>
      <point x="315" y="-260" type="curve" smooth="yes"/>
      <point x="315" y="-159"/>
      <point x="255" y="-63"/>
      <point x="169" y="-44" type="curve"/>
      <point x="29" y="-156" type="line"/>
      <point x="20" y="-230" type="line"/>
      <point x="60" y="-236"/>
      <point x="90" y="-287"/>
    </contour>
    <contour>
      <point x="161" y="-170" type="move" name="_btm"/>
    </contour>
  </outline>
</glyph>
<glyph name="pi" format="1">
  <advance width="1580"/>
  <unicode hex="03C0"/>
  <outline>
    <contour>
      <point x="1099" y="-16" type="curve" smooth="yes"/>
      <point x="1295" y="-16"/>
      <point x="1441" y="116"/>
      <point x="1480" y="234" type="curve"/>
      <point x="1371" y="324" type="line"/>
      <point x="1336" y="274"/>
      <point x="1271" y="197"/>
      <point x="1206" y="197" type="curve" smooth="yes"/>
      <point x="1168" y="197"/>
      <point x="1139" y="224"/>
      <point x="1143" y="310" type="curve" smooth="yes"/>
      <point x="1198" y="1041" type="line"/>
      <point x="974" y="1040" type="line"/>
      <point x="881" y="274" type="line"/>
      <point x="860" y="90"/>
      <point x="937" y="-16"/>
    </contour>
    <contour>
      <point x="189" y="819" type="line"/>
      <point x="228" y="858"/>
      <point x="275" y="903"/>
      <point x="375" y="903" type="curve" smooth="yes"/>
      <point x="1204" y="903" type="line" smooth="yes"/>
      <point x="1408" y="903"/>
      <point x="1508" y="990"/>
      <point x="1517" y="1215" type="curve"/>
      <point x="1348" y="1215" type="line"/>
      <point x="1330" y="1161"/>
      <point x="1289" y="1140"/>
      <point x="1207" y="1140" type="curve" smooth="yes"/>
      <point x="410" y="1140" type="line" smooth="yes"/>
      <point x="215" y="1140"/>
      <point x="86" y="1053"/>
      <point x="60" y="877" type="curve"/>
    </contour>
    <contour>
      <point x="129" y="116" type="curve"/>
      <point x="298" y="-20" type="line"/>
      <point x="373" y="-11"/>
      <point x="433" y="18"/>
      <point x="474" y="52" type="curve" smooth="yes"/>
      <point x="564" y="133"/>
      <point x="616" y="196"/>
      <point x="628" y="418" type="curve" smooth="yes"/>
      <point x="686" y="1034" type="line"/>
      <point x="453" y="1034" type="line"/>
      <point x="371" y="491" type="line" smooth="yes"/>
      <point x="358" y="360"/>
      <point x="340" y="253"/>
      <point x="233" y="170" type="curve" smooth="yes"/>
      <point x="191" y="139"/>
      <point x="147" y="120"/>
    </contour>
  </outline>
</glyph>
<glyph name="Germandbls" format="1">
  <advance width="1507"/>
  <unicode hex="1E9E"/>
  <outline>
    <contour>
      <point x="67" y="0" type="line"/>
      <point x="347" y="0" type="line"/>
      <point x="468" y="868" type="line" smooth="yes"/>
      <point x="512" y="1182"/>
      <point x="687" y="1338"/>
      <point x="905" y="1338" type="curve" smooth="yes"/>
      <point x="976" y="1338"/>
      <point x="1054" y="1324"/>
      <point x="1102" y="1298" type="curve"/>
      <point x="752" y="864" type="line"/>
      <point x="736" y="749" type="line"/>
      <point x="1027" y="749"/>
      <point x="1139" y="662"/>
      <point x="1139" y="499" type="curve" name="hr01" smooth="yes"/>
      <point x="1139" y="271"/>
      <point x="977" y="179"/>
      <point x="861" y="179" type="curve" smooth="yes"/>
      <point x="756" y="179"/>
      <point x="655" y="221"/>
      <point x="614" y="260" type="curve"/>
      <point x="500" y="60" type="line"/>
      <point x="570" y="17"/>
      <point x="715" y="-23"/>
      <point x="869" y="-23" type="curve" smooth="yes"/>
      <point x="1192" y="-23"/>
      <point x="1424" y="214"/>
      <point x="1424" y="521" type="curve" smooth="yes"/>
      <point x="1424" y="760"/>
      <point x="1211" y="894"/>
      <point x="1062" y="894" type="curve"/>
      <point x="1394" y="1292" type="line"/>
      <point x="1413" y="1456" type="line" name="hr02"/>
      <point x="1314" y="1456"/>
      <point x="1191" y="1538"/>
      <point x="927" y="1538" type="curve" smooth="yes"/>
      <point x="496" y="1538"/>
      <point x="240" y="1239"/>
      <point x="172" y="753" type="curve" smooth="yes"/>
    </contour>
  </outline>
</glyph>
<glyph name="quoteleft" format="1">
  <advance width="696"/>
  <unicode hex="2018"/>
  <outline>
    <contour>
      <point x="380" y="907" type="curve"/>
      <point x="537" y="1043" type="line"/>
      <point x="542" y="1084" type="line"/>
      <point x="494" y="1127"/>
      <point x="465" y="1218"/>
      <point x="465" y="1296" type="curve" smooth="yes"/>
      <point x="465" y="1456"/>
      <point x="556" y="1573"/>
      <point x="625" y="1608" type="curve"/>
      <point x="627" y="1630" type="line"/>
      <point x="532" y="1756" type="line"/>
      <point x="398" y="1696"/>
      <point x="198" y="1528"/>
      <point x="198" y="1245" type="curve" smooth="yes"/>
      <point x="198" y="1069"/>
      <point x="299" y="947"/>
    </contour>
  </outline>
</glyph>
<glyph name="minute" format="1">
  <advance width="623"/>
  <unicode hex="2032"/>
  <outline>
    <contour>
      <point x="250" y="1190" type="line"/>
      <point x="438" y="1190" type="line"/>
      <point x="632" y="1782" type="line"/>
      <point x="377" y="1782" type="line"/>
    </contour>
  </outline>
</glyph>
<glyph name="guilsinglleft" format="1">
  <advance width="1190"/>
  <unicode hex="2039"/>
  <outline>
    <contour>
      <point x="204" y="530" type="line"/>
      <point x="825" y="142" type="line"/>
      <point x="915" y="284" type="line"/>
      <point x="526" y="610" type="line"/>
      <point x="996" y="941" type="line"/>
      <point x="948" y="1101" type="line"/>
      <point x="231" y="705" type="line"/>
    </contour>
  </outline>
</glyph>
<glyph name="peseta" format="1">
  <advance width="1566"/>
  <unicode hex="20A7"/>
  <outline>
    <contour>
      <point x="1124" y="1083" type="curve" name="hr01"/>
      <point x="635" y="1083" type="line"/>
      <point x="667" y="1321" type="line"/>
      <point x="723" y="1331"/>
      <point x="809" y="1337"/>
      <point x="864" y="1338" type="curve"/>
      <point x="1053" y="1339"/>
      <point x="1134" y="1246"/>
    </contour>
    <contour>
      <point x="616" y="936" type="line"/>
      <point x="1101" y="936" type="line"/>
      <point x="1054" y="773"/>
      <point x="942" y="696"/>
      <point x="771" y="695" type="curve" smooth="yes"/>
      <point x="700" y="695"/>
      <point x="630" y="699"/>
      <point x="585" y="706" type="curve"/>
    </contour>
    <contour>
      <point x="143" y="936" type="line"/>
      <point x="324" y="936" type="line"/>
      <point x="198" y="0" type="line"/>
      <point x="491" y="0" type="line"/>
      <point x="556" y="491" type="line"/>
      <point x="590" y="489"/>
      <point x="652" y="485"/>
      <point x="748" y="485" type="curve" smooth="yes"/>
      <point x="1085" y="485"/>
      <point x="1317" y="648"/>
      <point x="1389" y="936" type="curve"/>
      <point x="1580" y="936" type="line"/>
      <point x="1600" y="1083" type="line"/>
      <point x="1411" y="1083" type="line"/>
      <point x="1436" y="1412"/>
      <point x="1251" y="1542"/>
      <point x="921" y="1542" type="curve" name="hr02" smooth="yes"/>
      <point x="783" y="1542"/>
      <point x="656" y="1526"/>
      <point x="551" y="1526" type="curve" name="hr03" smooth="yes"/>
      <point x="403" y="1526" type="line"/>
      <point x="343" y="1083" type="line"/>
      <point x="163" y="1083" type="line"/>
    </contour>
  </outline>
</glyph>
<glyph name="dong" format="1">
  <advance width="1220"/>
  <unicode hex="20AB"/>
  <outline>
    <contour>
      <point x="805" y="1027" type="curve" name="hr00"/>
      <point x="748" y="578" type="line"/>
      <point x="723" y="559"/>
      <point x="673" y="519"/>
      <point x="535" y="519" type="curve" smooth="yes"/>
      <point x="455" y="519"/>
      <point x="408" y="587"/>
      <point x="408" y="719" type="curve" smooth="yes"/>
      <point x="408" y="909"/>
      <point x="474" y="1064"/>
      <point x="660" y="1064" type="curve" smooth="yes"/>
      <point x="757" y="1064"/>
      <point x="794" y="1039"/>
    </contour>
    <contour>
      <point x="607" y="1363" type="line"/>
      <point x="852" y="1363" type="line"/>
      <point x="842" y="1217" type="line"/>
      <point x="813" y="1231"/>
      <point x="761" y="1248"/>
      <point x="681" y="1248" type="curve" smooth="yes"/>
      <point x="363" y="1248"/>
      <point x="143" y="1044"/>
      <point x="143" y="693" type="curve" smooth="yes"/>
      <point x="143" y="453"/>
      <point x="294" y="319"/>
      <point x="472" y="319" type="curve" smooth="yes"/>
      <point x="634" y="319"/>
      <point x="717" y="388"/>
      <point x="761" y="429" type="curve"/>
      <point x="759" y="395"/>
      <point x="753" y="355"/>
      <point x="753" y="353" type="curve" smooth="yes"/>
      <point x="752" y="343"/>
      <point x="751" y="319"/>
      <point x="769" y="319" type="curve" smooth="yes"/>
      <point x="969" y="319" type="line"/>
      <point x="1102" y="1363" type="line"/>
      <point x="1280" y="1363" type="line"/>
      <point x="1300" y="1522" type="line"/>
      <point x="1123" y="1522" type="line"/>
      <point x="1145" y="1690" type="line"/>
      <point x="895" y="1690" type="line"/>
      <point x="873" y="1522" type="line"/>
      <point x="628" y="1522" type="line"/>
    </contour>
    <contour>
      <point x="36" y="0" type="line"/>
      <point x="1030" y="0" type="line"/>
      <point x="1055" y="188" type="line"/>
      <point x="60" y="188" type="line"/>
    </contour>
  </outline>
</glyph>
<glyph name="euro" format="1">
  <advance width="1389"/>
  <unicode hex="20AC"/>
  <outline>
    <contour>
      <point x="24" y="539" type="line"/>
      <point x="1016" y="539" type="line"/>
      <point x="1033" y="701" type="line"/>
      <point x="44" y="701" type="line"/>
    </contour>
    <contour>
      <point x="222" y="645" type="curve" smooth="yes"/>
      <point x="221" y="329"/>
      <point x="352" y="-16"/>
      <point x="736" y="-16" type="curve" smooth="yes"/>
      <point x="942" y="-16"/>
      <point x="1110" y="45"/>
      <point x="1181" y="125" type="curve"/>
      <point x="1118" y="294" type="line"/>
      <point x="1034" y="232"/>
      <point x="938" y="174"/>
      <point x="783" y="174" type="curve" smooth="yes"/>
      <point x="577" y="174"/>
      <point x="499" y="359"/>
      <point x="505" y="648" type="curve" smooth="yes"/>
      <point x="513" y="1058"/>
      <point x="665" y="1345"/>
      <point x="934" y="1345" type="curve" smooth="yes"/>
      <point x="1075" y="1345"/>
      <point x="1182" y="1306"/>
      <point x="1208" y="1278" type="curve"/>
      <point x="1277" y="1492" type="line"/>
      <point x="1202" y="1515"/>
      <point x="1124" y="1546"/>
      <point x="963" y="1546" type="curve" smooth="yes"/>
      <point x="540" y="1546"/>
      <point x="222" y="1184"/>
    </contour>
    <contour>
      <point x="69" y="877" type="line"/>
      <point x="1056" y="877" type="line"/>
      <point x="1075" y="1038" type="line"/>
      <point x="89" y="1038" type="line"/>
    </contour>
  </outline>
</glyph>
<glyph name="numero" format="1">
  <advance width="2505"/>
  <unicode hex="2116"/>
  <outline>
    <contour>
      <point x="1574" y="992" type="curve" smooth="yes"/>
      <point x="1559" y="740"/>
      <point x="1684" y="541"/>
      <point x="1949" y="541" type="curve" smooth="yes"/>
      <point x="2235" y="541"/>
      <point x="2457" y="757"/>
      <point x="2474" y="1083" type="curve" smooth="yes"/>
      <point x="2489" y="1336"/>
      <point x="2365" y="1532"/>
      <point x="2100" y="1532" type="curve" smooth="yes"/>
      <point x="1813" y="1532"/>
      <point x="1590" y="1318"/>
    </contour>
    <contour>
      <point x="127" y="0" type="line"/>
      <point x="382" y="0" type="line"/>
      <point x="497" y="894" type="line"/>
      <point x="519" y="1191" type="line"/>
      <point x="598" y="926" type="line"/>
      <point x="983" y="0" type="line"/>
      <point x="1231" y="0" type="line"/>
      <point x="1424" y="1530" type="line"/>
      <point x="1166" y="1530" type="line"/>
      <point x="1061" y="641" type="line"/>
      <point x="1041" y="386" type="line"/>
      <point x="966" y="618" type="line"/>
      <point x="586" y="1530" type="line"/>
      <point x="320" y="1530" type="line"/>
    </contour>
    <contour>
      <point x="1823" y="985" type="curve" smooth="yes"/>
      <point x="1835" y="1205"/>
      <point x="1914" y="1368"/>
      <point x="2066" y="1369" type="curve" smooth="yes"/>
      <point x="2178" y="1370"/>
      <point x="2233" y="1260"/>
      <point x="2222" y="1086" type="curve" smooth="yes"/>
      <point x="2211" y="866"/>
      <point x="2136" y="706"/>
      <point x="1981" y="705" type="curve" smooth="yes"/>
      <point x="1869" y="704"/>
      <point x="1812" y="816"/>
    </contour>
    <contour>
      <point x="1518" y="0" type="line"/>
      <point x="2331" y="0" type="line"/>
      <point x="2346" y="183" type="line"/>
      <point x="1533" y="183" type="line"/>
    </contour>
  </outline>
</glyph>
<glyph name="partialdiff" format="1">
  <advance width="1361"/>
  <unicode hex="2202"/>
  <outline>
    <contour>
      <point x="144" y="499" type="curve" smooth="yes"/>
      <point x="153" y="200"/>
      <point x="379" y="-16"/>
      <point x="658" y="-16" type="curve" smooth="yes"/>
      <point x="1081" y="-16"/>
      <point x="1252" y="312"/>
      <point x="1252" y="810" type="curve" smooth="yes"/>
      <point x="1252" y="1255"/>
      <point x="1055" y="1709"/>
      <point x="541" y="1709" type="curve" smooth="yes"/>
      <point x="413" y="1709"/>
      <point x="262" y="1669"/>
      <point x="161" y="1590" type="curve"/>
      <point x="253" y="1427" type="line"/>
      <point x="312" y="1467"/>
      <point x="414" y="1494"/>
      <point x="497" y="1494" type="curve" smooth="yes"/>
      <point x="783" y="1494"/>
      <point x="926" y="1297"/>
      <point x="965" y="1026" type="curve"/>
      <point x="896" y="1055"/>
      <point x="817" y="1074"/>
      <point x="720" y="1074" type="curve" smooth="yes"/>
      <point x="412" y="1074"/>
      <point x="131" y="908"/>
    </contour>
    <contour>
      <point x="699" y="188" type="curve" smooth="yes"/>
      <point x="495" y="188"/>
      <point x="433" y="333"/>
      <point x="426" y="522" type="curve" smooth="yes"/>
      <point x="416" y="777"/>
      <point x="550" y="886"/>
      <point x="719" y="886" type="curve" smooth="yes"/>
      <point x="820" y="886"/>
      <point x="899" y="866"/>
      <point x="976" y="818" type="curve"/>
      <point x="975" y="604"/>
      <point x="968" y="188"/>
    </contour>
  </outline>
</glyph>
<glyph name="minus" format="1">
  <advance width="1266"/>
  <unicode hex="2212"/>
  <outline>
    <contour>
      <point x="221" y="671" type="line"/>
      <point x="1059" y="671" type="line"/>
      <point x="1087" y="874" type="line"/>
      <point x="248" y="874" type="line"/>
    </contour>
  </outline>
</glyph>
<glyph name="radical" format="1">
  <advance width="1625"/>
  <unicode hex="221A"/>
  <outline>
    <contour>
      <point x="199" y="376" type="line"/>
      <point x="347" y="453" type="line"/>
      <point x="700" y="-354" type="line"/>
      <point x="945" y="-354" type="line"/>
      <point x="1644" y="1870" type="line"/>
      <point x="1355" y="1870" type="line"/>
      <point x="815" y="-9" type="line"/>
      <point x="549" y="716" type="line"/>
      <point x="325" y="716" type="line"/>
      <point x="92" y="590" type="line"/>
    </contour>
  </outline>
</glyph>
<glyph name="breve.cap" format="1">
  <advance width="719"/>
  <outline>
    <contour>
      <point x="355" y="1631" type="curve" smooth="yes"/>
      <point x="581" y="1631"/>
      <point x="694" y="1807"/>
      <point x="705" y="1964" type="curve" smooth="yes"/>
      <point x="706" y="1975"/>
      <point x="706" y="1986"/>
      <point x="706" y="1997" type="curve"/>
      <point x="548" y="1997" type="line"/>
      <point x="530" y="1927"/>
      <point x="499" y="1813"/>
      <point x="366" y="1813" type="curve" smooth="yes"/>
      <point x="244" y="1813"/>
      <point x="219" y="1885"/>
      <point x="211" y="1959" type="curve" smooth="yes"/>
      <point x="210" y="1973"/>
      <point x="211" y="1986"/>
      <point x="211" y="1997" type="curve"/>
      <point x="50" y="1997" type="line"/>
      <point x="47" y="1985"/>
      <point x="43" y="1960"/>
      <point x="43" y="1945" type="curve" smooth="yes"/>
      <point x="43" y="1776"/>
      <point x="127" y="1631"/>
    </contour>
    <contour>
      <point x="334" y="1700" type="move" name="_top"/>
    </contour>
  </outline>
</glyph>
<glyph name="dieresis.cap" format="1">
  <advance width="811"/>
  <outline>
    <contour>
      <point x="247" y="1664" type="curve" smooth="yes"/>
      <point x="351" y="1664"/>
      <point x="415" y="1745"/>
      <point x="417" y="1839" type="curve" smooth="yes"/>
      <point x="419" y="1910"/>
      <point x="365" y="1977"/>
      <point x="279" y="1977" type="curve" smooth="yes"/>
      <point x="190" y="1977"/>
      <point x="118" y="1900"/>
      <point x="115" y="1807" type="curve" smooth="yes"/>
      <point x="113" y="1734"/>
      <point x="175" y="1664"/>
    </contour>
    <contour>
      <point x="692" y="1664" type="curve" smooth="yes"/>
      <point x="797" y="1664"/>
      <point x="861" y="1745"/>
      <point x="864" y="1839" type="curve" smooth="yes"/>
      <point x="866" y="1910"/>
      <point x="810" y="1977"/>
      <point x="724" y="1977" type="curve" smooth="yes"/>
      <point x="636" y="1977"/>
      <point x="562" y="1900"/>
      <point x="561" y="1807" type="curve" smooth="yes"/>
      <point x="560" y="1733"/>
      <point x="620" y="1664"/>
    </contour>
    <contour>
      <point x="463" y="1700" type="move" name="_top"/>
    </contour>
  </outline>
</glyph>
<glyph name="three.numr" format="1">
  <advance width="1071"/>
  <outline>
    <contour>
      <point x="118" y="586" type="line"/>
      <point x="195" y="537"/>
      <point x="342" y="509"/>
      <point x="444" y="509" type="curve" smooth="yes"/>
      <point x="703" y="509"/>
      <point x="951" y="637"/>
      <point x="955" y="877" type="curve" smooth="yes"/>
      <point x="957" y="974"/>
      <point x="912" y="1107"/>
      <point x="723" y="1121" type="curve"/>
      <point x="858" y="1172"/>
      <point x="946" y="1276"/>
      <point x="948" y="1418" type="curve" smooth="yes"/>
      <point x="950" y="1523"/>
      <point x="865" y="1644"/>
      <point x="628" y="1644" type="curve" smooth="yes"/>
      <point x="484" y="1644"/>
      <point x="342" y="1602"/>
      <point x="228" y="1523" type="curve"/>
      <point x="289" y="1377" type="line"/>
      <point x="351" y="1420"/>
      <point x="433" y="1457"/>
      <point x="537" y="1458" type="curve" smooth="yes"/>
      <point x="638" y="1459"/>
      <point x="677" y="1409"/>
      <point x="677" y="1353" type="curve" smooth="yes"/>
      <point x="677" y="1240"/>
      <point x="559" y="1183"/>
      <point x="382" y="1142" type="curve"/>
      <point x="354" y="965" type="line"/>
      <point x="553" y="1012" type="line"/>
      <point x="638" y="1009"/>
      <point x="698" y="962"/>
      <point x="695" y="879" type="curve" smooth="yes"/>
      <point x="693" y="734"/>
      <point x="534" y="681"/>
      <point x="401" y="680" type="curve" smooth="yes"/>
      <point x="315" y="678"/>
      <point x="211" y="700"/>
      <point x="148" y="735" type="curve"/>
    </contour>
  </outline>
</glyph>
<glyph name="tilde.cap" format="1">
  <advance width="817"/>
  <outline>
    <contour>
      <point x="98" y="1682" type="line"/>
      <point x="138" y="1724"/>
      <point x="182" y="1773"/>
      <point x="248" y="1772" type="curve" smooth="yes"/>
      <point x="370" y="1770"/>
      <point x="381" y="1630"/>
      <point x="561" y="1630" type="curve" smooth="yes"/>
      <point x="676" y="1630"/>
      <point x="808" y="1728"/>
      <point x="845" y="1826" type="curve"/>
      <point x="743" y="1943" type="line"/>
      <point x="703" y="1893"/>
      <point x="664" y="1833"/>
      <point x="586" y="1833" type="curve" smooth="yes"/>
      <point x="485" y="1833"/>
      <point x="455" y="1975"/>
      <point x="293" y="1975" type="curve" smooth="yes"/>
      <point x="185" y="1975"/>
      <point x="45" y="1881"/>
      <point x="1" y="1792" type="curve"/>
    </contour>
    <contour>
      <point x="370" y="1700" type="move" name="_top"/>
    </contour>
  </outline>
</glyph>
